<svg width="144" height="144" viewBox="0 0 144 144" fill="none" xmlns="http://www.w3.org/2000/svg">
<g clip-path="url(#clip0_38_21)">
<path d="M72 12C60.1331 12 48.5327 15.5189 38.6658 22.1118C28.7988 28.7047 21.1085 38.0754 16.5672 49.039C12.026 60.0026 10.8378 72.0666 13.1529 83.7054C15.468 95.3443 21.1824 106.035 29.5736 114.426C37.9647 122.818 48.6557 128.532 60.2946 130.847C71.9334 133.162 83.9974 131.974 94.961 127.433C105.925 122.892 115.295 115.201 121.888 105.334C128.481 95.4673 132 83.8669 132 72C132 64.1207 130.448 56.3185 127.433 49.039C124.417 41.7595 119.998 35.1451 114.426 29.5736C108.855 24.0021 102.241 19.5825 94.961 16.5672C87.6815 13.5519 79.8793 12 72 12ZM72 120C62.5065 120 53.2262 117.185 45.3326 111.911C37.4391 106.636 31.2868 99.1397 27.6538 90.3688C24.0208 81.5979 23.0702 71.9468 24.9223 62.6357C26.7744 53.3246 31.3459 44.7718 38.0589 38.0589C44.7718 31.346 53.3246 26.7744 62.6357 24.9223C71.9468 23.0702 81.5979 24.0208 90.3688 27.6538C99.1397 31.2868 106.636 37.4391 111.911 45.3326C117.185 53.2262 120 62.5065 120 72C120 84.7304 114.943 96.9394 105.941 105.941C96.9394 114.943 84.7304 120 72 120Z" fill="#FF3D31"/>
<path d="M72 102C75.3137 102 78 99.3137 78 96C78 92.6863 75.3137 90 72 90C68.6863 90 66 92.6863 66 96C66 99.3137 68.6863 102 72 102Z" fill="#FF3D31"/>
<path d="M72 42C70.4087 42 68.8826 42.6321 67.7574 43.7574C66.6321 44.8826 66 46.4087 66 48V78C66 79.5913 66.6321 81.1174 67.7574 82.2426C68.8826 83.3679 70.4087 84 72 84C73.5913 84 75.1174 83.3679 76.2426 82.2426C77.3679 81.1174 78 79.5913 78 78V48C78 46.4087 77.3679 44.8826 76.2426 43.7574C75.1174 42.6321 73.5913 42 72 42Z" fill="#FF3D31"/>
</g>
<defs>
<clipPath id="clip0_38_21">
<rect width="144" height="144" fill="white"/>
</clipPath>
</defs>
</svg>
