<svg width="144" height="144" viewBox="0 0 144 144" fill="none" xmlns="http://www.w3.org/2000/svg">
<g clip-path="url(#clip0_22_20)">
<path d="M104.4 132C79.9037 131.968 56.4199 122.223 39.0984 104.902C21.7769 87.5801 12.0318 64.0963 12 39.6C12 32.28 14.9078 25.2599 20.0839 20.0839C25.2599 14.9079 32.28 12 39.6 12C41.15 11.9882 42.6975 12.1289 44.22 12.42C45.6919 12.6378 47.1388 12.9996 48.54 13.5C49.5255 13.8458 50.4037 14.4428 51.0877 15.232C51.7717 16.0213 52.2378 16.9754 52.44 18L60.66 54C60.8816 54.9772 60.8549 55.9943 60.5824 56.9585C60.3099 57.9227 59.8003 58.8034 59.1 59.52C58.32 60.36 58.26 60.42 50.88 64.26C56.79 77.2252 67.1592 87.637 80.1 93.6C84 86.16 84.06 86.1 84.9 85.32C85.6167 84.6198 86.4973 84.1101 87.4615 83.8376C88.4257 83.5651 89.4428 83.5385 90.42 83.76L126.42 91.98C127.412 92.2101 128.329 92.6889 129.085 93.3712C129.84 94.0534 130.41 94.9168 130.74 95.88C131.246 97.3042 131.628 98.7697 131.88 100.26C132.121 101.768 132.242 103.293 132.24 104.82C132.129 112.109 129.14 119.058 123.924 124.15C118.708 129.242 111.689 132.064 104.4 132ZM39.6 24C35.4675 24.0158 31.5087 25.6645 28.5866 28.5866C25.6644 31.5088 24.0158 35.4675 24 39.6C24.0159 60.9185 32.4917 81.3594 47.5662 96.4339C62.6406 111.508 83.0815 119.984 104.4 120C108.533 119.984 112.491 118.336 115.413 115.413C118.336 112.491 119.984 108.533 120 104.4V102.42L92.16 96L90.42 99.3C87.72 104.52 85.74 108.3 80.7 106.26C70.7573 102.701 61.7322 96.9722 54.2804 89.4893C46.8286 82.0064 41.1373 72.9575 37.62 63C35.46 58.32 39.54 56.16 44.7 53.46L48 51.84L41.58 24H39.6Z" fill="#474747"/>
</g>
<defs>
<clipPath id="clip0_22_20">
<rect width="144" height="144" fill="white"/>
</clipPath>
</defs>
</svg>
