<svg width="1117" height="1117" viewBox="0 0 1117 1117" fill="none" xmlns="http://www.w3.org/2000/svg">
<rect x="532.784" y="252" width="25.5258" height="25.5258" fill="white"/>
<rect x="507.258" y="252" width="25.5258" height="25.5258" fill="white"/>
<rect x="558.31" y="252" width="25.5258" height="25.5258" fill="white"/>
<rect x="583.836" y="252" width="25.5258" height="25.5258" fill="white"/>
<rect x="634.888" y="277.526" width="25.5258" height="25.5258" fill="white"/>
<rect x="660.413" y="277.526" width="25.5258" height="25.5258" fill="white"/>
<rect x="813.568" y="430.681" width="25.5258" height="25.5258" fill="white"/>
<rect x="839.094" y="481.732" width="25.5258" height="25.5258" fill="white"/>
<rect x="839.094" y="507.258" width="25.5258" height="25.5258" fill="white"/>
<rect x="558.31" y="839.094" width="25.5258" height="25.5258" fill="white"/>
<rect x="532.784" y="839.094" width="25.5258" height="25.5258" fill="white"/>
<rect x="507.258" y="839.094" width="25.5258" height="25.5258" fill="white"/>
<rect x="481.732" y="839.094" width="25.5258" height="25.5258" fill="white"/>
<rect x="481.732" y="813.568" width="25.5258" height="25.5258" fill="#FC9CFD"/>
<rect x="456.206" y="736.991" width="25.5258" height="25.5258" fill="#FC9CFD"/>
<rect x="481.732" y="736.991" width="25.5258" height="25.5258" fill="#FC9CFD"/>
<rect x="430.681" y="711.465" width="25.5258" height="25.5258" fill="#FC9CFD"/>
<rect x="405.155" y="685.939" width="25.5258" height="25.5258" fill="#FC9CFD"/>
<rect x="379.629" y="660.413" width="25.5258" height="25.5258" fill="#FC9CFD"/>
<rect x="354.103" y="634.888" width="25.5258" height="25.5258" fill="#FC9CFD"/>
<rect x="354.103" y="609.362" width="25.5258" height="25.5258" fill="#FC9CFD"/>
<rect x="685.939" y="736.991" width="25.5258" height="25.5258" fill="#FC9CFD"/>
<rect x="736.991" y="634.888" width="25.5258" height="25.5258" fill="#FC9CFD"/>
<rect x="736.991" y="609.362" width="25.5258" height="25.5258" fill="#FC9CFD"/>
<rect x="711.465" y="583.836" width="25.5258" height="25.5258" fill="#FC9CFD"/>
<rect x="711.465" y="558.31" width="25.5258" height="25.5258" fill="#FC9CFD"/>
<rect x="685.939" y="507.258" width="25.5258" height="25.5258" fill="#FC9CFD"/>
<rect x="609.362" y="405.155" width="25.5258" height="25.5258" fill="#FC9CFD"/>
<rect x="583.836" y="405.155" width="25.5258" height="25.5258" fill="#FC9CFD"/>
<rect x="583.836" y="405.155" width="25.5258" height="25.5258" fill="#FC9CFD"/>
<rect x="354.103" y="430.681" width="25.5258" height="25.5258" fill="#FC9CFD"/>
<rect x="558.31" y="354.103" width="25.5258" height="25.5258" fill="#FC9CFD"/>
<rect x="532.784" y="354.103" width="25.5258" height="25.5258" fill="#FC9CFD"/>
<rect x="685.939" y="481.732" width="25.5258" height="25.5258" fill="#FC9CFD"/>
<rect x="660.413" y="456.207" width="25.5258" height="25.5258" fill="#CB30B8"/>
<rect x="634.888" y="430.681" width="25.5258" height="25.5258" fill="#CB30B8"/>
<rect x="660.413" y="736.991" width="25.5258" height="25.5258" fill="#82E9F2"/>
<rect x="685.939" y="711.465" width="25.5258" height="25.5258" fill="#82E9F2"/>
<rect x="711.465" y="711.465" width="25.5258" height="25.5258" fill="#82E9F2"/>
<rect x="711.465" y="685.939" width="25.5258" height="25.5258" fill="#82E9F2"/>
<rect x="736.991" y="583.836" width="25.5258" height="25.5258" fill="#82E9F2"/>
<rect x="736.991" y="558.31" width="25.5258" height="25.5258" fill="#82E9F2"/>
<rect x="762.517" y="558.31" width="25.5258" height="25.5258" fill="#82E9F2"/>
<rect x="762.517" y="532.784" width="25.5258" height="25.5258" fill="#82E9F2"/>
<rect x="430.681" y="736.991" width="25.5258" height="25.5258" fill="#82E9F2"/>
<rect x="354.103" y="660.413" width="25.5258" height="25.5258" fill="#82E9F2"/>
<rect x="379.629" y="685.939" width="25.5258" height="25.5258" fill="#82E9F2"/>
<rect x="379.629" y="711.465" width="25.5258" height="25.5258" fill="#82E9F2"/>
<rect x="736.991" y="532.784" width="25.5258" height="25.5258" fill="#82E9F2"/>
<rect x="711.465" y="532.784" width="25.5258" height="25.5258" fill="#82E9F2"/>
<rect x="711.465" y="507.258" width="25.5258" height="25.5258" fill="#82E9F2"/>
<rect x="711.465" y="481.732" width="25.5258" height="25.5258" fill="#82E9F2"/>
<rect x="711.465" y="456.207" width="25.5258" height="25.5258" fill="#82E9F2"/>
<rect x="685.939" y="456.207" width="25.5258" height="25.5258" fill="#82E9F2"/>
<rect x="685.939" y="430.681" width="25.5258" height="25.5258" fill="#82E9F2"/>
<rect x="711.465" y="430.681" width="25.5258" height="25.5258" fill="#82E9F2"/>
<rect x="660.413" y="430.681" width="25.5258" height="25.5258" fill="#82E9F2"/>
<rect x="660.413" y="405.155" width="25.5258" height="25.5258" fill="#82E9F2"/>
<rect x="685.939" y="405.155" width="25.5258" height="25.5258" fill="#82E9F2"/>
<rect x="685.939" y="379.629" width="25.5258" height="25.5258" fill="#82E9F2"/>
<rect x="660.413" y="379.629" width="25.5258" height="25.5258" fill="#82E9F2"/>
<rect x="634.888" y="405.155" width="25.5258" height="25.5258" fill="#82E9F2"/>
<rect x="634.888" y="379.629" width="25.5258" height="25.5258" fill="#82E9F2"/>
<rect x="609.362" y="379.629" width="25.5258" height="25.5258" fill="#82E9F2"/>
<rect x="583.836" y="379.629" width="25.5258" height="25.5258" fill="#82E9F2"/>
<rect x="583.836" y="354.103" width="25.5258" height="25.5258" fill="#82E9F2"/>
<rect x="507.258" y="328.578" width="25.5258" height="25.5258" fill="#82E9F2"/>
<rect x="532.784" y="328.578" width="25.5258" height="25.5258" fill="#82E9F2"/>
<rect x="558.31" y="328.578" width="25.5258" height="25.5258" fill="#82E9F2"/>
<rect x="583.836" y="328.578" width="25.5258" height="25.5258" fill="#82E9F2"/>
<rect x="609.362" y="328.578" width="25.5258" height="25.5258" fill="#E0FEF9"/>
<rect x="634.888" y="354.103" width="25.5258" height="25.5258" fill="#E0FEF9"/>
<rect x="660.413" y="354.103" width="25.5258" height="25.5258" fill="#E0FEF9"/>
<rect x="685.939" y="354.103" width="25.5258" height="25.5258" fill="#E0FEF9"/>
<rect x="762.517" y="507.258" width="25.5258" height="25.5258" fill="#E0FEF9"/>
<rect x="762.517" y="481.732" width="25.5258" height="25.5258" fill="#E0FEF9"/>
<rect x="405.155" y="736.991" width="25.5258" height="25.5258" fill="#E0FEF9"/>
<rect x="405.155" y="711.465" width="25.5258" height="25.5258" fill="#E0FEF9"/>
<rect x="354.103" y="685.939" width="25.5258" height="25.5258" fill="#E0FEF9"/>
<rect x="736.991" y="481.732" width="25.5258" height="25.5258" fill="#E0FEF9"/>
<rect x="736.991" y="456.207" width="25.5258" height="25.5258" fill="#E0FEF9"/>
<rect x="736.991" y="430.681" width="25.5258" height="25.5258" fill="#E0FEF9"/>
<rect x="736.991" y="405.155" width="25.5258" height="25.5258" fill="#E0FEF9"/>
<rect x="711.465" y="405.155" width="25.5258" height="25.5258" fill="#E0FEF9"/>
<rect x="711.465" y="379.629" width="25.5258" height="25.5258" fill="#E0FEF9"/>
<rect x="609.362" y="354.103" width="25.5258" height="25.5258" fill="#82E9F2"/>
<rect x="736.991" y="507.258" width="25.5258" height="25.5258" fill="#82E9F2"/>
<rect x="430.681" y="813.568" width="25.5258" height="25.5258" fill="white"/>
<rect x="379.629" y="788.042" width="25.5258" height="25.5258" fill="white"/>
<rect x="354.103" y="762.517" width="25.5258" height="25.5258" fill="white"/>
<rect x="303.052" y="711.465" width="25.5258" height="25.5258" fill="white"/>
<rect x="303.052" y="685.939" width="25.5258" height="25.5258" fill="white"/>
<rect x="277.526" y="660.413" width="25.5258" height="25.5258" fill="white"/>
<rect x="277.526" y="634.888" width="25.5258" height="25.5258" fill="white"/>
<rect x="252" y="609.362" width="25.5258" height="25.5258" fill="white"/>
<rect x="252" y="583.836" width="25.5258" height="25.5258" fill="white"/>
<rect x="252" y="558.31" width="25.5258" height="25.5258" fill="white"/>
<rect x="252" y="532.784" width="25.5258" height="25.5258" fill="white"/>
<rect x="685.939" y="303.052" width="25.5258" height="25.5258" fill="white"/>
<rect x="711.465" y="303.052" width="25.5258" height="25.5258" fill="white"/>
<rect x="736.991" y="328.578" width="25.5258" height="25.5258" fill="white"/>
<rect x="762.517" y="354.103" width="25.5258" height="25.5258" fill="white"/>
<rect x="788.042" y="379.629" width="25.5258" height="25.5258" fill="white"/>
<rect x="609.362" y="252" width="25.5258" height="25.5258" fill="#797979"/>
<rect x="788.042" y="405.155" width="25.5258" height="25.5258" fill="#797979"/>
<rect x="813.568" y="456.207" width="25.5258" height="25.5258" fill="#797979"/>
<rect x="839.094" y="532.784" width="25.5258" height="25.5258" fill="#797979"/>
<rect x="839.094" y="558.31" width="25.5258" height="25.5258" fill="#797979"/>
<rect x="839.094" y="583.836" width="25.5258" height="25.5258" fill="#797979"/>
<rect x="839.094" y="609.362" width="25.5258" height="25.5258" fill="#797979"/>
<rect x="813.568" y="634.888" width="25.5258" height="25.5258" fill="#797979"/>
<rect x="813.568" y="660.413" width="25.5258" height="25.5258" fill="#797979"/>
<rect x="788.042" y="685.939" width="25.5258" height="25.5258" fill="#797979"/>
<rect x="788.042" y="711.465" width="25.5258" height="25.5258" fill="#797979"/>
<rect x="762.517" y="736.991" width="25.5258" height="25.5258" fill="#797979"/>
<rect x="736.991" y="762.517" width="25.5258" height="25.5258" fill="#797979"/>
<rect x="711.465" y="788.042" width="25.5258" height="25.5258" fill="#797979"/>
<rect x="685.939" y="788.042" width="25.5258" height="25.5258" fill="#797979"/>
<rect x="660.413" y="813.568" width="25.5258" height="25.5258" fill="#797979"/>
<rect x="634.888" y="813.568" width="25.5258" height="25.5258" fill="#797979"/>
<rect x="609.362" y="839.094" width="25.5258" height="25.5258" fill="#797979"/>
<rect x="583.836" y="839.094" width="25.5258" height="25.5258" fill="#797979"/>
<rect x="456.206" y="813.568" width="25.5258" height="25.5258" fill="#797979"/>
<rect x="405.155" y="788.042" width="25.5258" height="25.5258" fill="#797979"/>
<rect x="328.578" y="736.991" width="25.5258" height="25.5258" fill="#797979"/>
<rect x="252" y="507.258" width="25.5258" height="25.5258" fill="#797979"/>
<rect x="252" y="481.732" width="25.5258" height="25.5258" fill="#797979"/>
<rect x="277.526" y="456.207" width="25.5258" height="25.5258" fill="#797979"/>
<rect x="277.526" y="430.681" width="25.5258" height="25.5258" fill="#797979"/>
<rect x="303.052" y="405.155" width="25.5258" height="25.5258" fill="#797979"/>
<rect x="303.052" y="379.629" width="25.5258" height="25.5258" fill="#797979"/>
<rect x="328.578" y="354.103" width="25.5258" height="25.5258" fill="#797979"/>
<rect x="354.103" y="328.578" width="25.5258" height="25.5258" fill="#797979"/>
<rect x="379.629" y="303.052" width="25.5258" height="25.5258" fill="#797979"/>
<rect x="405.155" y="303.052" width="25.5258" height="25.5258" fill="#797979"/>
<rect x="430.681" y="277.526" width="25.5258" height="25.5258" fill="#797979"/>
<rect x="456.206" y="277.526" width="25.5258" height="25.5258" fill="#797979"/>
<rect x="481.732" y="252" width="25.5258" height="25.5258" fill="#797979"/>
<g opacity="0.2" filter="url(#filter0_f_6_284)">
<rect x="532.784" y="252" width="25.5258" height="25.5258" fill="white"/>
<rect x="507.258" y="252" width="25.5258" height="25.5258" fill="white"/>
<rect x="558.31" y="252" width="25.5258" height="25.5258" fill="white"/>
<rect x="583.836" y="252" width="25.5258" height="25.5258" fill="white"/>
<rect x="634.888" y="277.526" width="25.5258" height="25.5258" fill="white"/>
<rect x="660.413" y="277.526" width="25.5258" height="25.5258" fill="white"/>
<rect x="813.568" y="430.681" width="25.5258" height="25.5258" fill="white"/>
<rect x="839.094" y="481.732" width="25.5258" height="25.5258" fill="white"/>
<rect x="839.094" y="507.258" width="25.5258" height="25.5258" fill="white"/>
<rect x="558.31" y="839.094" width="25.5258" height="25.5258" fill="white"/>
<rect x="532.784" y="839.094" width="25.5258" height="25.5258" fill="white"/>
<rect x="507.258" y="839.094" width="25.5258" height="25.5258" fill="white"/>
<rect x="481.732" y="839.094" width="25.5258" height="25.5258" fill="white"/>
<rect x="481.732" y="813.568" width="25.5258" height="25.5258" fill="#FC9CFD"/>
<rect x="456.206" y="736.991" width="25.5258" height="25.5258" fill="#FC9CFD"/>
<rect x="481.732" y="736.991" width="25.5258" height="25.5258" fill="#FC9CFD"/>
<rect x="430.681" y="711.465" width="25.5258" height="25.5258" fill="#FC9CFD"/>
<rect x="405.155" y="685.939" width="25.5258" height="25.5258" fill="#FC9CFD"/>
<rect x="379.629" y="660.413" width="25.5258" height="25.5258" fill="#FC9CFD"/>
<rect x="354.103" y="634.888" width="25.5258" height="25.5258" fill="#FC9CFD"/>
<rect x="354.103" y="609.362" width="25.5258" height="25.5258" fill="#FC9CFD"/>
<rect x="685.939" y="736.991" width="25.5258" height="25.5258" fill="#FC9CFD"/>
<rect x="736.991" y="634.888" width="25.5258" height="25.5258" fill="#FC9CFD"/>
<rect x="736.991" y="609.362" width="25.5258" height="25.5258" fill="#FC9CFD"/>
<rect x="711.465" y="583.836" width="25.5258" height="25.5258" fill="#FC9CFD"/>
<rect x="711.465" y="558.31" width="25.5258" height="25.5258" fill="#FC9CFD"/>
<rect x="685.939" y="507.258" width="25.5258" height="25.5258" fill="#FC9CFD"/>
<rect x="609.362" y="405.155" width="25.5258" height="25.5258" fill="#FC9CFD"/>
<rect x="583.836" y="405.155" width="25.5258" height="25.5258" fill="#FC9CFD"/>
<rect x="583.836" y="405.155" width="25.5258" height="25.5258" fill="#FC9CFD"/>
<rect x="354.103" y="430.681" width="25.5258" height="25.5258" fill="#FC9CFD"/>
<rect x="558.31" y="354.103" width="25.5258" height="25.5258" fill="#FC9CFD"/>
<rect x="532.784" y="354.103" width="25.5258" height="25.5258" fill="#FC9CFD"/>
<rect x="685.939" y="481.732" width="25.5258" height="25.5258" fill="#FC9CFD"/>
<rect x="660.413" y="456.207" width="25.5258" height="25.5258" fill="#CB30B8"/>
<rect x="634.888" y="430.681" width="25.5258" height="25.5258" fill="#CB30B8"/>
<rect x="660.413" y="736.991" width="25.5258" height="25.5258" fill="#82E9F2"/>
<rect x="685.939" y="711.465" width="25.5258" height="25.5258" fill="#82E9F2"/>
<rect x="711.465" y="711.465" width="25.5258" height="25.5258" fill="#82E9F2"/>
<rect x="711.465" y="685.939" width="25.5258" height="25.5258" fill="#82E9F2"/>
<rect x="736.991" y="583.836" width="25.5258" height="25.5258" fill="#82E9F2"/>
<rect x="736.991" y="558.31" width="25.5258" height="25.5258" fill="#82E9F2"/>
<rect x="762.517" y="558.31" width="25.5258" height="25.5258" fill="#82E9F2"/>
<rect x="762.517" y="532.784" width="25.5258" height="25.5258" fill="#82E9F2"/>
<rect x="430.681" y="736.991" width="25.5258" height="25.5258" fill="#82E9F2"/>
<rect x="354.103" y="660.413" width="25.5258" height="25.5258" fill="#82E9F2"/>
<rect x="379.629" y="685.939" width="25.5258" height="25.5258" fill="#82E9F2"/>
<rect x="379.629" y="711.465" width="25.5258" height="25.5258" fill="#82E9F2"/>
<rect x="736.991" y="532.784" width="25.5258" height="25.5258" fill="#82E9F2"/>
<rect x="711.465" y="532.784" width="25.5258" height="25.5258" fill="#82E9F2"/>
<rect x="711.465" y="507.258" width="25.5258" height="25.5258" fill="#82E9F2"/>
<rect x="711.465" y="481.732" width="25.5258" height="25.5258" fill="#82E9F2"/>
<rect x="711.465" y="456.207" width="25.5258" height="25.5258" fill="#82E9F2"/>
<rect x="685.939" y="456.207" width="25.5258" height="25.5258" fill="#82E9F2"/>
<rect x="685.939" y="430.681" width="25.5258" height="25.5258" fill="#82E9F2"/>
<rect x="711.465" y="430.681" width="25.5258" height="25.5258" fill="#82E9F2"/>
<rect x="660.413" y="430.681" width="25.5258" height="25.5258" fill="#82E9F2"/>
<rect x="660.413" y="405.155" width="25.5258" height="25.5258" fill="#82E9F2"/>
<rect x="685.939" y="405.155" width="25.5258" height="25.5258" fill="#82E9F2"/>
<rect x="685.939" y="379.629" width="25.5258" height="25.5258" fill="#82E9F2"/>
<rect x="660.413" y="379.629" width="25.5258" height="25.5258" fill="#82E9F2"/>
<rect x="634.888" y="405.155" width="25.5258" height="25.5258" fill="#82E9F2"/>
<rect x="634.888" y="379.629" width="25.5258" height="25.5258" fill="#82E9F2"/>
<rect x="609.362" y="379.629" width="25.5258" height="25.5258" fill="#82E9F2"/>
<rect x="583.836" y="379.629" width="25.5258" height="25.5258" fill="#82E9F2"/>
<rect x="583.836" y="354.103" width="25.5258" height="25.5258" fill="#82E9F2"/>
<rect x="507.258" y="328.578" width="25.5258" height="25.5258" fill="#82E9F2"/>
<rect x="532.784" y="328.578" width="25.5258" height="25.5258" fill="#82E9F2"/>
<rect x="558.31" y="328.578" width="25.5258" height="25.5258" fill="#82E9F2"/>
<rect x="583.836" y="328.578" width="25.5258" height="25.5258" fill="#82E9F2"/>
<rect x="609.362" y="328.578" width="25.5258" height="25.5258" fill="#E0FEF9"/>
<rect x="634.888" y="354.103" width="25.5258" height="25.5258" fill="#E0FEF9"/>
<rect x="660.413" y="354.103" width="25.5258" height="25.5258" fill="#E0FEF9"/>
<rect x="685.939" y="354.103" width="25.5258" height="25.5258" fill="#E0FEF9"/>
<rect x="762.517" y="507.258" width="25.5258" height="25.5258" fill="#E0FEF9"/>
<rect x="762.517" y="481.732" width="25.5258" height="25.5258" fill="#E0FEF9"/>
<rect x="405.155" y="736.991" width="25.5258" height="25.5258" fill="#E0FEF9"/>
<rect x="405.155" y="711.465" width="25.5258" height="25.5258" fill="#E0FEF9"/>
<rect x="354.103" y="685.939" width="25.5258" height="25.5258" fill="#E0FEF9"/>
<rect x="736.991" y="481.732" width="25.5258" height="25.5258" fill="#E0FEF9"/>
<rect x="736.991" y="456.207" width="25.5258" height="25.5258" fill="#E0FEF9"/>
<rect x="736.991" y="430.681" width="25.5258" height="25.5258" fill="#E0FEF9"/>
<rect x="736.991" y="405.155" width="25.5258" height="25.5258" fill="#E0FEF9"/>
<rect x="711.465" y="405.155" width="25.5258" height="25.5258" fill="#E0FEF9"/>
<rect x="711.465" y="379.629" width="25.5258" height="25.5258" fill="#E0FEF9"/>
<rect x="609.362" y="354.103" width="25.5258" height="25.5258" fill="#82E9F2"/>
<rect x="736.991" y="507.258" width="25.5258" height="25.5258" fill="#82E9F2"/>
<rect x="430.681" y="813.568" width="25.5258" height="25.5258" fill="white"/>
<rect x="379.629" y="788.042" width="25.5258" height="25.5258" fill="white"/>
<rect x="354.103" y="762.517" width="25.5258" height="25.5258" fill="white"/>
<rect x="303.052" y="711.465" width="25.5258" height="25.5258" fill="white"/>
<rect x="303.052" y="685.939" width="25.5258" height="25.5258" fill="white"/>
<rect x="277.526" y="660.413" width="25.5258" height="25.5258" fill="white"/>
<rect x="277.526" y="634.888" width="25.5258" height="25.5258" fill="white"/>
<rect x="252" y="609.362" width="25.5258" height="25.5258" fill="white"/>
<rect x="252" y="583.836" width="25.5258" height="25.5258" fill="white"/>
<rect x="252" y="558.31" width="25.5258" height="25.5258" fill="white"/>
<rect x="252" y="532.784" width="25.5258" height="25.5258" fill="white"/>
<rect x="685.939" y="303.052" width="25.5258" height="25.5258" fill="white"/>
<rect x="711.465" y="303.052" width="25.5258" height="25.5258" fill="white"/>
<rect x="736.991" y="328.578" width="25.5258" height="25.5258" fill="white"/>
<rect x="762.517" y="354.103" width="25.5258" height="25.5258" fill="white"/>
<rect x="788.042" y="379.629" width="25.5258" height="25.5258" fill="white"/>
<rect x="609.362" y="252" width="25.5258" height="25.5258" fill="#797979"/>
<rect x="788.042" y="405.155" width="25.5258" height="25.5258" fill="#797979"/>
<rect x="813.568" y="456.207" width="25.5258" height="25.5258" fill="#797979"/>
<rect x="839.094" y="532.784" width="25.5258" height="25.5258" fill="#797979"/>
<rect x="839.094" y="558.31" width="25.5258" height="25.5258" fill="#797979"/>
<rect x="839.094" y="583.836" width="25.5258" height="25.5258" fill="#797979"/>
<rect x="839.094" y="609.362" width="25.5258" height="25.5258" fill="#797979"/>
<rect x="813.568" y="634.888" width="25.5258" height="25.5258" fill="#797979"/>
<rect x="813.568" y="660.413" width="25.5258" height="25.5258" fill="#797979"/>
<rect x="788.042" y="685.939" width="25.5258" height="25.5258" fill="#797979"/>
<rect x="788.042" y="711.465" width="25.5258" height="25.5258" fill="#797979"/>
<rect x="762.517" y="736.991" width="25.5258" height="25.5258" fill="#797979"/>
<rect x="736.991" y="762.517" width="25.5258" height="25.5258" fill="#797979"/>
<rect x="711.465" y="788.042" width="25.5258" height="25.5258" fill="#797979"/>
<rect x="685.939" y="788.042" width="25.5258" height="25.5258" fill="#797979"/>
<rect x="660.413" y="813.568" width="25.5258" height="25.5258" fill="#797979"/>
<rect x="634.888" y="813.568" width="25.5258" height="25.5258" fill="#797979"/>
<rect x="609.362" y="839.094" width="25.5258" height="25.5258" fill="#797979"/>
<rect x="583.836" y="839.094" width="25.5258" height="25.5258" fill="#797979"/>
<rect x="456.206" y="813.568" width="25.5258" height="25.5258" fill="#797979"/>
<rect x="405.155" y="788.042" width="25.5258" height="25.5258" fill="#797979"/>
<rect x="328.578" y="736.991" width="25.5258" height="25.5258" fill="#797979"/>
<rect x="252" y="507.258" width="25.5258" height="25.5258" fill="#797979"/>
<rect x="252" y="481.732" width="25.5258" height="25.5258" fill="#797979"/>
<rect x="277.526" y="456.207" width="25.5258" height="25.5258" fill="#797979"/>
<rect x="277.526" y="430.681" width="25.5258" height="25.5258" fill="#797979"/>
<rect x="303.052" y="405.155" width="25.5258" height="25.5258" fill="#797979"/>
<rect x="303.052" y="379.629" width="25.5258" height="25.5258" fill="#797979"/>
<rect x="328.578" y="354.103" width="25.5258" height="25.5258" fill="#797979"/>
<rect x="354.103" y="328.578" width="25.5258" height="25.5258" fill="#797979"/>
<rect x="379.629" y="303.052" width="25.5258" height="25.5258" fill="#797979"/>
<rect x="405.155" y="303.052" width="25.5258" height="25.5258" fill="#797979"/>
<rect x="430.681" y="277.526" width="25.5258" height="25.5258" fill="#797979"/>
<rect x="456.206" y="277.526" width="25.5258" height="25.5258" fill="#797979"/>
<rect x="481.732" y="252" width="25.5258" height="25.5258" fill="#797979"/>
</g>
<path d="M378.634 274.907L377.287 310.098L400.209 336.835L365.017 335.488L338.28 358.409L339.628 323.218L316.706 296.481L351.898 297.829L378.634 274.907Z" fill="#DBFF00"/>
<path d="M816.514 686.683L797.878 760.11L858.104 806.064L784.676 787.428L738.722 847.654L757.358 774.226L697.132 728.272L770.56 746.909L816.514 686.683Z" fill="#B1DAFF"/>
<defs>
<filter id="filter0_f_6_284" x="0" y="0" width="1116.62" height="1116.62" filterUnits="userSpaceOnUse" color-interpolation-filters="sRGB">
<feFlood flood-opacity="0" result="BackgroundImageFix"/>
<feBlend mode="normal" in="SourceGraphic" in2="BackgroundImageFix" result="shape"/>
<feGaussianBlur stdDeviation="126" result="effect1_foregroundBlur_6_284"/>
</filter>
</defs>
</svg>
