<svg width="100" height="100" viewBox="0 0 100 100" fill="none" xmlns="http://www.w3.org/2000/svg">
<rect x="45.8333" width="4.16667" height="4.16667" fill="white"/>
<rect x="41.6667" width="4.16667" height="4.16667" fill="white"/>
<rect x="50" width="4.16667" height="4.16667" fill="white"/>
<rect x="54.1666" width="4.16667" height="4.16667" fill="white"/>
<rect x="62.5" y="4.16663" width="4.16667" height="4.16667" fill="white"/>
<rect x="66.6666" y="4.16663" width="4.16667" height="4.16667" fill="white"/>
<rect x="91.6666" y="29.1666" width="4.16667" height="4.16667" fill="white"/>
<rect x="95.8333" y="37.5" width="4.16667" height="4.16667" fill="white"/>
<rect x="95.8333" y="41.6666" width="4.16667" height="4.16667" fill="white"/>
<rect x="50" y="95.8334" width="4.16667" height="4.16667" fill="white"/>
<rect x="45.8333" y="95.8334" width="4.16667" height="4.16667" fill="white"/>
<rect x="41.6667" y="95.8334" width="4.16667" height="4.16667" fill="white"/>
<rect x="37.5" y="95.8334" width="4.16667" height="4.16667" fill="white"/>
<rect x="37.5" y="91.6666" width="4.16667" height="4.16667" fill="#FC9CFD"/>
<rect x="33.3333" y="79.1666" width="4.16667" height="4.16667" fill="#FC9CFD"/>
<rect x="37.5" y="79.1666" width="4.16667" height="4.16667" fill="#FC9CFD"/>
<rect x="29.1667" y="75" width="4.16667" height="4.16667" fill="#FC9CFD"/>
<rect x="25" y="70.8334" width="4.16667" height="4.16667" fill="#FC9CFD"/>
<rect x="20.8333" y="66.6666" width="4.16667" height="4.16667" fill="#FC9CFD"/>
<rect x="16.6667" y="62.5" width="4.16667" height="4.16667" fill="#FC9CFD"/>
<rect x="16.6667" y="58.3334" width="4.16667" height="4.16667" fill="#FC9CFD"/>
<rect x="70.8333" y="79.1666" width="4.16667" height="4.16667" fill="#FC9CFD"/>
<rect x="79.1666" y="62.5" width="4.16667" height="4.16667" fill="#FC9CFD"/>
<rect x="79.1666" y="58.3334" width="4.16667" height="4.16667" fill="#FC9CFD"/>
<rect x="75" y="54.1666" width="4.16667" height="4.16667" fill="#FC9CFD"/>
<rect x="75" y="50" width="4.16667" height="4.16667" fill="#FC9CFD"/>
<rect x="70.8333" y="41.6666" width="4.16667" height="4.16667" fill="#FC9CFD"/>
<rect x="58.3333" y="25" width="4.16667" height="4.16667" fill="#FC9CFD"/>
<rect x="54.1666" y="25" width="4.16667" height="4.16667" fill="#FC9CFD"/>
<rect x="54.1666" y="25" width="4.16667" height="4.16667" fill="#FC9CFD"/>
<rect x="16.6667" y="29.1666" width="4.16667" height="4.16667" fill="#FC9CFD"/>
<rect x="50" y="16.6666" width="4.16667" height="4.16667" fill="#FC9CFD"/>
<rect x="45.8333" y="16.6666" width="4.16667" height="4.16667" fill="#FC9CFD"/>
<rect x="70.8333" y="37.5" width="4.16667" height="4.16667" fill="#FC9CFD"/>
<rect x="66.6666" y="33.3334" width="4.16667" height="4.16667" fill="#CB30B8"/>
<rect x="62.5" y="29.1666" width="4.16667" height="4.16667" fill="#CB30B8"/>
<rect x="66.6666" y="79.1666" width="4.16667" height="4.16667" fill="#82E9F2"/>
<rect x="70.8333" y="75" width="4.16667" height="4.16667" fill="#82E9F2"/>
<rect x="75" y="75" width="4.16667" height="4.16667" fill="#82E9F2"/>
<rect x="75" y="70.8334" width="4.16667" height="4.16667" fill="#82E9F2"/>
<rect x="79.1666" y="54.1666" width="4.16667" height="4.16667" fill="#82E9F2"/>
<rect x="79.1666" y="50" width="4.16667" height="4.16667" fill="#82E9F2"/>
<rect x="83.3334" y="50" width="4.16667" height="4.16667" fill="#82E9F2"/>
<rect x="83.3334" y="45.8334" width="4.16667" height="4.16667" fill="#82E9F2"/>
<rect x="29.1667" y="79.1666" width="4.16667" height="4.16667" fill="#82E9F2"/>
<rect x="16.6667" y="66.6666" width="4.16667" height="4.16667" fill="#82E9F2"/>
<rect x="20.8333" y="70.8334" width="4.16667" height="4.16667" fill="#82E9F2"/>
<rect x="20.8333" y="75" width="4.16667" height="4.16667" fill="#82E9F2"/>
<rect x="79.1666" y="45.8334" width="4.16667" height="4.16667" fill="#82E9F2"/>
<rect x="75" y="45.8334" width="4.16667" height="4.16667" fill="#82E9F2"/>
<rect x="75" y="41.6666" width="4.16667" height="4.16667" fill="#82E9F2"/>
<rect x="75" y="37.5" width="4.16667" height="4.16667" fill="#82E9F2"/>
<rect x="75" y="33.3334" width="4.16667" height="4.16667" fill="#82E9F2"/>
<rect x="70.8333" y="33.3334" width="4.16667" height="4.16667" fill="#82E9F2"/>
<rect x="70.8333" y="29.1666" width="4.16667" height="4.16667" fill="#82E9F2"/>
<rect x="75" y="29.1666" width="4.16667" height="4.16667" fill="#82E9F2"/>
<rect x="66.6666" y="29.1666" width="4.16667" height="4.16667" fill="#82E9F2"/>
<rect x="66.6666" y="25" width="4.16667" height="4.16667" fill="#82E9F2"/>
<rect x="70.8333" y="25" width="4.16667" height="4.16667" fill="#82E9F2"/>
<rect x="70.8333" y="20.8334" width="4.16667" height="4.16667" fill="#82E9F2"/>
<rect x="66.6666" y="20.8334" width="4.16667" height="4.16667" fill="#82E9F2"/>
<rect x="62.5" y="25" width="4.16667" height="4.16667" fill="#82E9F2"/>
<rect x="62.5" y="20.8334" width="4.16667" height="4.16667" fill="#82E9F2"/>
<rect x="58.3333" y="20.8334" width="4.16667" height="4.16667" fill="#82E9F2"/>
<rect x="54.1666" y="20.8334" width="4.16667" height="4.16667" fill="#82E9F2"/>
<rect x="54.1666" y="16.6666" width="4.16667" height="4.16667" fill="#82E9F2"/>
<rect x="41.6667" y="12.5" width="4.16667" height="4.16667" fill="#82E9F2"/>
<rect x="45.8333" y="12.5" width="4.16667" height="4.16667" fill="#82E9F2"/>
<rect x="50" y="12.5" width="4.16667" height="4.16667" fill="#82E9F2"/>
<rect x="54.1666" y="12.5" width="4.16667" height="4.16667" fill="#82E9F2"/>
<rect x="58.3333" y="12.5" width="4.16667" height="4.16667" fill="#E0FEF9"/>
<rect x="62.5" y="16.6666" width="4.16667" height="4.16667" fill="#E0FEF9"/>
<rect x="66.6666" y="16.6666" width="4.16667" height="4.16667" fill="#E0FEF9"/>
<rect x="70.8333" y="16.6666" width="4.16667" height="4.16667" fill="#E0FEF9"/>
<rect x="83.3334" y="41.6666" width="4.16667" height="4.16667" fill="#E0FEF9"/>
<rect x="83.3334" y="37.5" width="4.16667" height="4.16667" fill="#E0FEF9"/>
<rect x="25" y="79.1666" width="4.16667" height="4.16667" fill="#E0FEF9"/>
<rect x="25" y="75" width="4.16667" height="4.16667" fill="#E0FEF9"/>
<rect x="16.6667" y="70.8334" width="4.16667" height="4.16667" fill="#E0FEF9"/>
<rect x="79.1666" y="37.5" width="4.16667" height="4.16667" fill="#E0FEF9"/>
<rect x="79.1666" y="33.3334" width="4.16667" height="4.16667" fill="#E0FEF9"/>
<rect x="79.1666" y="29.1666" width="4.16667" height="4.16667" fill="#E0FEF9"/>
<rect x="79.1666" y="25" width="4.16667" height="4.16667" fill="#E0FEF9"/>
<rect x="75" y="25" width="4.16667" height="4.16667" fill="#E0FEF9"/>
<rect x="75" y="20.8334" width="4.16667" height="4.16667" fill="#E0FEF9"/>
<rect x="58.3333" y="16.6666" width="4.16667" height="4.16667" fill="#82E9F2"/>
<rect x="79.1666" y="41.6666" width="4.16667" height="4.16667" fill="#82E9F2"/>
<rect x="29.1667" y="91.6666" width="4.16667" height="4.16667" fill="white"/>
<rect x="20.8333" y="87.5" width="4.16667" height="4.16667" fill="white"/>
<rect x="16.6667" y="83.3334" width="4.16667" height="4.16667" fill="white"/>
<rect x="8.33331" y="75" width="4.16667" height="4.16667" fill="white"/>
<rect x="8.33331" y="70.8334" width="4.16667" height="4.16667" fill="white"/>
<rect x="4.16669" y="66.6666" width="4.16667" height="4.16667" fill="white"/>
<rect x="4.16669" y="62.5" width="4.16667" height="4.16667" fill="white"/>
<rect y="58.3334" width="4.16667" height="4.16667" fill="white"/>
<rect y="54.1666" width="4.16667" height="4.16667" fill="white"/>
<rect y="50" width="4.16667" height="4.16667" fill="white"/>
<rect y="45.8334" width="4.16667" height="4.16667" fill="white"/>
<rect x="70.8333" y="8.33337" width="4.16667" height="4.16667" fill="white"/>
<rect x="75" y="8.33337" width="4.16667" height="4.16667" fill="white"/>
<rect x="79.1666" y="12.5" width="4.16667" height="4.16667" fill="white"/>
<rect x="83.3334" y="16.6666" width="4.16667" height="4.16667" fill="white"/>
<rect x="87.5" y="20.8334" width="4.16667" height="4.16667" fill="white"/>
<rect x="58.3333" width="4.16667" height="4.16667" fill="#797979"/>
<rect x="87.5" y="25" width="4.16667" height="4.16667" fill="#797979"/>
<rect x="91.6666" y="33.3334" width="4.16667" height="4.16667" fill="#797979"/>
<rect x="95.8333" y="45.8334" width="4.16667" height="4.16667" fill="#797979"/>
<rect x="95.8333" y="50" width="4.16667" height="4.16667" fill="#797979"/>
<rect x="95.8333" y="54.1666" width="4.16667" height="4.16667" fill="#797979"/>
<rect x="95.8333" y="58.3334" width="4.16667" height="4.16667" fill="#797979"/>
<rect x="91.6666" y="62.5" width="4.16667" height="4.16667" fill="#797979"/>
<rect x="91.6666" y="66.6666" width="4.16667" height="4.16667" fill="#797979"/>
<rect x="87.5" y="70.8334" width="4.16667" height="4.16667" fill="#797979"/>
<rect x="87.5" y="75" width="4.16667" height="4.16667" fill="#797979"/>
<rect x="83.3334" y="79.1666" width="4.16667" height="4.16667" fill="#797979"/>
<rect x="79.1666" y="83.3334" width="4.16667" height="4.16667" fill="#797979"/>
<rect x="75" y="87.5" width="4.16667" height="4.16667" fill="#797979"/>
<rect x="70.8333" y="87.5" width="4.16667" height="4.16667" fill="#797979"/>
<rect x="66.6666" y="91.6666" width="4.16667" height="4.16667" fill="#797979"/>
<rect x="62.5" y="91.6666" width="4.16667" height="4.16667" fill="#797979"/>
<rect x="58.3333" y="95.8334" width="4.16667" height="4.16667" fill="#797979"/>
<rect x="54.1666" y="95.8334" width="4.16667" height="4.16667" fill="#797979"/>
<rect x="33.3333" y="91.6666" width="4.16667" height="4.16667" fill="#797979"/>
<rect x="25" y="87.5" width="4.16667" height="4.16667" fill="#797979"/>
<rect x="12.5" y="79.1666" width="4.16667" height="4.16667" fill="#797979"/>
<rect y="41.6666" width="4.16667" height="4.16667" fill="#797979"/>
<rect y="37.5" width="4.16667" height="4.16667" fill="#797979"/>
<rect x="4.16669" y="33.3334" width="4.16667" height="4.16667" fill="#797979"/>
<rect x="4.16669" y="29.1666" width="4.16667" height="4.16667" fill="#797979"/>
<rect x="8.33331" y="25" width="4.16667" height="4.16667" fill="#797979"/>
<rect x="8.33331" y="20.8334" width="4.16667" height="4.16667" fill="#797979"/>
<rect x="12.5" y="16.6666" width="4.16667" height="4.16667" fill="#797979"/>
<rect x="16.6667" y="12.5" width="4.16667" height="4.16667" fill="#797979"/>
<rect x="20.8333" y="8.33337" width="4.16667" height="4.16667" fill="#797979"/>
<rect x="25" y="8.33337" width="4.16667" height="4.16667" fill="#797979"/>
<rect x="29.1667" y="4.16663" width="4.16667" height="4.16667" fill="#797979"/>
<rect x="33.3333" y="4.16663" width="4.16667" height="4.16667" fill="#797979"/>
<rect x="37.5" width="4.16667" height="4.16667" fill="#797979"/>
</svg>
